<?xml version="1.0" encoding="utf-8"?>
<!-- Generator: Adobe Illustrator 26.0.1, SVG Export Plug-In . SVG Version: 6.00 Build 0)  -->
<svg version="1.1" xmlns="http://www.w3.org/2000/svg" xmlns:xlink="http://www.w3.org/1999/xlink" x="0px" y="0px"
	 viewBox="0 0 346 80.8" style="enable-background:new 0 0 346 80.8;" xml:space="preserve">
<style type="text/css">
	.st0{fill:#B2B2B2;}
	.st1{fill:#000066;}
	.st2{fill:#F15A24;}
</style>
<g id="Warstwa_1">
</g>
<g id="Warstwa_2">
	<rect y="18" class="st0" width="59" height="59"/>
	<g>
		<path class="st1" d="M99.7,57V1.9h10.6v29.2l12.4-14.1h13L122,31.7L136.6,57h-11.4l-10-17.9l-4.9,5.1V57H99.7z"/>
		<path class="st1" d="M140.5,36.5c0-3.5,0.9-6.9,2.6-10.2c1.7-3.3,4.2-5.8,7.3-7.5c3.2-1.7,6.7-2.6,10.6-2.6c6,0,11,2,14.8,5.9
			c3.9,3.9,5.8,8.9,5.8,14.9c0,6-1.9,11-5.8,15c-3.9,4-8.8,6-14.7,6c-3.7,0-7.1-0.8-10.5-2.5c-3.3-1.7-5.8-4.1-7.6-7.3
			S140.5,41.1,140.5,36.5z M151.3,37.1c0,4,0.9,7,2.8,9.1c1.9,2.1,4.2,3.2,7,3.2c2.8,0,5.1-1.1,6.9-3.2c1.9-2.1,2.8-5.2,2.8-9.2
			c0-3.9-0.9-6.9-2.8-9c-1.9-2.1-4.2-3.2-6.9-3.2c-2.8,0-5.1,1.1-7,3.2C152.2,30.1,151.3,33.1,151.3,37.1z"/>
		<path class="st1" d="M226.2,57h-10.6V36.7c0-4.3-0.2-7.1-0.7-8.4c-0.5-1.3-1.2-2.2-2.2-3c-1-0.7-2.2-1.1-3.7-1.1
			c-1.8,0-3.5,0.5-4.9,1.5c-1.5,1-2.4,2.3-3,4c-0.5,1.7-0.8,4.7-0.8,9.2V57h-10.6V17.1h9.8V23c3.5-4.5,7.9-6.8,13.2-6.8
			c2.3,0,4.5,0.4,6.4,1.3c1.9,0.8,3.4,1.9,4.4,3.2c1,1.3,1.7,2.8,2.1,4.4c0.4,1.7,0.6,4,0.6,7.1V57z"/>
		<path class="st1" d="M255.3,17.1v8.4H248v16.1c0,3.3,0.1,5.2,0.2,5.7c0.1,0.5,0.5,1,0.9,1.3c0.5,0.4,1.1,0.5,1.8,0.5
			c1,0,2.4-0.3,4.2-1l0.9,8.2c-2.5,1.1-5.2,1.6-8.3,1.6c-1.9,0-3.6-0.3-5.2-1c-1.5-0.6-2.6-1.5-3.4-2.5c-0.7-1-1.2-2.4-1.5-4.1
			c-0.2-1.2-0.3-3.7-0.3-7.4V25.5h-4.8v-8.4h4.8V9.2L248,3v14.1H255.3z"/>
		<path class="st1" d="M288.9,57v-6c-1.5,2.1-3.4,3.8-5.7,5c-2.4,1.2-4.9,1.8-7.5,1.8c-2.7,0-5.1-0.6-7.2-1.8
			c-2.1-1.2-3.7-2.8-4.6-5c-1-2.1-1.4-5.1-1.4-8.8V17.1h10.6v18.3c0,5.6,0.2,9.1,0.6,10.3c0.4,1.3,1.1,2.3,2.1,3
			c1,0.7,2.3,1.1,3.9,1.1c1.8,0,3.4-0.5,4.8-1.5c1.4-1,2.4-2.2,2.9-3.7c0.5-1.5,0.8-5.1,0.8-10.8V17.1h10.6V57H288.9z"/>
		<path class="st1" d="M319.7,57h-10.6V17.1h9.8v5.7c1.7-2.7,3.2-4.4,4.5-5.3c1.3-0.9,2.9-1.3,4.6-1.3c2.4,0,4.7,0.7,7,2l-3.3,9.2
			c-1.8-1.2-3.4-1.7-5-1.7c-1.5,0-2.7,0.4-3.8,1.2c-1,0.8-1.8,2.3-2.4,4.4c-0.6,2.1-0.9,6.6-0.9,13.4V57z"/>
	</g>
	<g>
		<path class="st1" d="M74.9,77.2V64.7h4.7c1,0,1.7,0.1,2.3,0.4c0.6,0.3,1,0.6,1.4,1.2c0.3,0.5,0.5,1.1,0.5,1.7c0,0.5-0.1,1-0.4,1.5
			c-0.3,0.5-0.7,0.9-1.3,1.1c0.8,0.2,1.3,0.6,1.7,1.1s0.6,1.2,0.6,1.9c0,0.6-0.1,1.1-0.4,1.6c-0.2,0.5-0.6,0.9-0.9,1.2
			c-0.4,0.3-0.8,0.5-1.4,0.6s-1.2,0.2-2,0.2H74.9z M76.5,70h2.7c0.7,0,1.3,0,1.6-0.1c0.4-0.1,0.7-0.3,1-0.6c0.2-0.3,0.3-0.7,0.3-1.1
			c0-0.4-0.1-0.8-0.3-1.1c-0.2-0.3-0.5-0.5-0.9-0.6s-1-0.2-1.9-0.2h-2.5V70z M76.5,75.7h3.1c0.5,0,0.9,0,1.1-0.1
			c0.4-0.1,0.7-0.2,1-0.3s0.5-0.4,0.6-0.7s0.2-0.7,0.2-1.1c0-0.5-0.1-0.9-0.4-1.2c-0.2-0.3-0.6-0.6-1-0.7c-0.4-0.1-1-0.2-1.8-0.2
			h-2.9V75.7z"/>
		<path class="st1" d="M86.4,66.5v-1.8h1.5v1.8H86.4z M86.4,77.2v-9.1h1.5v9.1H86.4z"/>
		<path class="st1" d="M96.2,77.2v-1.3c-0.7,1-1.7,1.5-2.9,1.5c-0.5,0-1-0.1-1.5-0.3c-0.5-0.2-0.8-0.5-1-0.8
			c-0.2-0.3-0.4-0.7-0.5-1.1c-0.1-0.3-0.1-0.8-0.1-1.4v-5.6h1.5v5c0,0.8,0,1.3,0.1,1.6c0.1,0.4,0.3,0.7,0.6,1
			c0.3,0.2,0.7,0.3,1.2,0.3c0.5,0,0.9-0.1,1.3-0.4c0.4-0.2,0.7-0.6,0.9-1c0.2-0.4,0.3-1,0.3-1.8v-4.9h1.5v9.1H96.2z"/>
		<path class="st1" d="M100,77.2v-9.1h1.4v1.4c0.4-0.6,0.7-1.1,1-1.3c0.3-0.2,0.6-0.3,1-0.3c0.5,0,1,0.2,1.6,0.5l-0.5,1.4
			c-0.4-0.2-0.8-0.3-1.1-0.3c-0.3,0-0.6,0.1-0.9,0.3c-0.3,0.2-0.5,0.5-0.6,0.8c-0.2,0.5-0.3,1.1-0.3,1.8v4.7H100z"/>
		<path class="st1" d="M105.2,72.7c0-1.7,0.5-2.9,1.4-3.7c0.8-0.7,1.7-1,2.8-1c1.2,0,2.3,0.4,3.1,1.2c0.8,0.8,1.2,1.9,1.2,3.4
			c0,1.2-0.2,2.1-0.5,2.8c-0.3,0.7-0.9,1.2-1.5,1.6c-0.7,0.4-1.4,0.6-2.2,0.6c-1.3,0-2.3-0.4-3.1-1.2
			C105.6,75.4,105.2,74.2,105.2,72.7z M106.8,72.7c0,1.2,0.3,2,0.8,2.6c0.5,0.6,1.1,0.9,1.9,0.9c0.8,0,1.4-0.3,1.9-0.9
			c0.5-0.6,0.8-1.5,0.8-2.7c0-1.1-0.3-2-0.8-2.5c-0.5-0.6-1.1-0.9-1.9-0.9c-0.8,0-1.4,0.3-1.9,0.9C107.1,70.6,106.8,71.5,106.8,72.7
			z"/>
		<path class="st1" d="M120.5,77.2V64.7h1.7v6.2l6.2-6.2h2.2l-5.2,5.1l5.5,7.4h-2.2l-4.5-6.3l-2,2v4.3H120.5z"/>
		<path class="st1" d="M131.5,72.7c0-1.7,0.5-2.9,1.4-3.7c0.8-0.7,1.7-1,2.8-1c1.2,0,2.3,0.4,3.1,1.2c0.8,0.8,1.2,1.9,1.2,3.4
			c0,1.2-0.2,2.1-0.5,2.8c-0.3,0.7-0.9,1.2-1.5,1.6c-0.7,0.4-1.4,0.6-2.2,0.6c-1.3,0-2.3-0.4-3.1-1.2
			C131.9,75.4,131.5,74.2,131.5,72.7z M133,72.7c0,1.2,0.3,2,0.8,2.6c0.5,0.6,1.1,0.9,1.9,0.9c0.8,0,1.4-0.3,1.9-0.9
			c0.5-0.6,0.8-1.5,0.8-2.7c0-1.1-0.3-2-0.8-2.5c-0.5-0.6-1.1-0.9-1.9-0.9c-0.8,0-1.4,0.3-1.9,0.9C133.3,70.6,133,71.5,133,72.7z"/>
		<path class="st1" d="M141.8,77.2v-9.1h1.4v1.3c0.7-1,1.6-1.5,2.9-1.5c0.5,0,1,0.1,1.5,0.3c0.5,0.2,0.8,0.5,1,0.8
			c0.2,0.3,0.4,0.7,0.5,1.1c0.1,0.3,0.1,0.8,0.1,1.5v5.6h-1.5v-5.5c0-0.6-0.1-1.1-0.2-1.4c-0.1-0.3-0.3-0.6-0.6-0.7
			c-0.3-0.2-0.7-0.3-1.1-0.3c-0.7,0-1.2,0.2-1.7,0.6c-0.5,0.4-0.7,1.2-0.7,2.4v4.9H141.8z"/>
		<path class="st1" d="M151.8,77.2v-7.9h-1.4v-1.2h1.4v-1c0-0.6,0.1-1.1,0.2-1.4c0.1-0.4,0.4-0.7,0.8-1c0.4-0.2,0.9-0.4,1.6-0.4
			c0.4,0,0.9,0.1,1.4,0.2l-0.2,1.3c-0.3-0.1-0.6-0.1-0.9-0.1c-0.5,0-0.8,0.1-1,0.3c-0.2,0.2-0.3,0.6-0.3,1.1v0.8h1.8v1.2h-1.8v7.9
			H151.8z"/>
		<path class="st1" d="M162.5,74.3l1.6,0.2c-0.3,0.9-0.7,1.6-1.4,2.2s-1.5,0.8-2.6,0.8c-1.3,0-2.4-0.4-3.2-1.2
			c-0.8-0.8-1.2-2-1.2-3.4c0-1.5,0.4-2.7,1.2-3.5c0.8-0.8,1.8-1.3,3.1-1.3c1.2,0,2.2,0.4,3,1.2c0.8,0.8,1.2,2,1.2,3.5
			c0,0.1,0,0.2,0,0.4h-6.8c0.1,1,0.3,1.8,0.8,2.3c0.5,0.5,1.1,0.8,1.9,0.8c0.6,0,1-0.1,1.4-0.4C162,75.4,162.3,74.9,162.5,74.3z
			 M157.5,71.8h5.1c-0.1-0.8-0.3-1.3-0.6-1.7c-0.5-0.6-1.1-0.9-1.9-0.9c-0.7,0-1.3,0.2-1.8,0.7C157.8,70.4,157.5,71,157.5,71.8z"/>
		<path class="st1" d="M166,77.2v-9.1h1.4v1.4c0.4-0.6,0.7-1.1,1-1.3c0.3-0.2,0.6-0.3,1-0.3c0.5,0,1,0.2,1.6,0.5l-0.5,1.4
			c-0.4-0.2-0.8-0.3-1.1-0.3c-0.3,0-0.6,0.1-0.9,0.3c-0.3,0.2-0.5,0.5-0.6,0.8c-0.2,0.5-0.3,1.1-0.3,1.8v4.7H166z"/>
		<path class="st1" d="M178.1,74.3l1.6,0.2c-0.3,0.9-0.7,1.6-1.4,2.2s-1.5,0.8-2.6,0.8c-1.3,0-2.4-0.4-3.2-1.2
			c-0.8-0.8-1.2-2-1.2-3.4c0-1.5,0.4-2.7,1.2-3.5c0.8-0.8,1.8-1.3,3.1-1.3c1.2,0,2.2,0.4,3,1.2c0.8,0.8,1.2,2,1.2,3.5
			c0,0.1,0,0.2,0,0.4h-6.8c0.1,1,0.3,1.8,0.8,2.3c0.5,0.5,1.1,0.8,1.9,0.8c0.6,0,1-0.1,1.4-0.4C177.5,75.4,177.8,74.9,178.1,74.3z
			 M173,71.8h5.1c-0.1-0.8-0.3-1.3-0.6-1.7c-0.5-0.6-1.1-0.9-1.9-0.9c-0.7,0-1.3,0.2-1.8,0.7C173.3,70.4,173.1,71,173,71.8z"/>
		<path class="st1" d="M181.6,77.2v-9.1h1.4v1.3c0.7-1,1.6-1.5,2.9-1.5c0.5,0,1,0.1,1.5,0.3c0.5,0.2,0.8,0.5,1,0.8
			c0.2,0.3,0.4,0.7,0.5,1.1c0.1,0.3,0.1,0.8,0.1,1.5v5.6h-1.5v-5.5c0-0.6-0.1-1.1-0.2-1.4c-0.1-0.3-0.3-0.6-0.6-0.7
			c-0.3-0.2-0.7-0.3-1.1-0.3c-0.7,0-1.2,0.2-1.7,0.6c-0.5,0.4-0.7,1.2-0.7,2.4v4.9H181.6z"/>
		<path class="st1" d="M197.2,73.9l1.5,0.2c-0.2,1-0.6,1.9-1.3,2.4s-1.5,0.9-2.5,0.9c-1.2,0-2.2-0.4-3-1.2c-0.8-0.8-1.1-2-1.1-3.5
			c0-1,0.2-1.8,0.5-2.6s0.8-1.3,1.5-1.7s1.4-0.6,2.2-0.6c1,0,1.8,0.2,2.4,0.7c0.6,0.5,1,1.2,1.2,2.1l-1.5,0.2
			c-0.1-0.6-0.4-1.1-0.8-1.4c-0.4-0.3-0.8-0.5-1.3-0.5c-0.8,0-1.4,0.3-1.9,0.8c-0.5,0.6-0.7,1.4-0.7,2.6c0,1.2,0.2,2.1,0.7,2.7
			s1.1,0.8,1.8,0.8c0.6,0,1.1-0.2,1.5-0.6S197.1,74.7,197.2,73.9z"/>
		<path class="st1" d="M200,80.7l-0.2-1.4c0.3,0.1,0.6,0.1,0.9,0.1c0.3,0,0.6-0.1,0.8-0.2c0.2-0.1,0.4-0.3,0.5-0.5
			c0.1-0.2,0.3-0.5,0.5-1.1c0-0.1,0.1-0.2,0.1-0.4l-3.4-9.1h1.7l1.9,5.2c0.2,0.7,0.5,1.4,0.7,2.1c0.2-0.7,0.4-1.4,0.6-2.1l1.9-5.3
			h1.5l-3.4,9.2c-0.4,1-0.7,1.7-0.9,2.1c-0.3,0.5-0.6,0.9-0.9,1.1c-0.4,0.2-0.8,0.4-1.3,0.4C200.7,80.9,200.3,80.8,200,80.7z"/>
		<path class="st1" d="M206.8,80.7l0.3-1.3c0.3,0.1,0.5,0.1,0.7,0.1c0.3,0,0.5-0.1,0.7-0.3c0.2-0.2,0.2-0.7,0.2-1.6v-9.5h1.5v9.6
			c0,1.1-0.1,1.9-0.4,2.3c-0.4,0.6-1,0.9-1.8,0.9C207.6,80.9,207.2,80.8,206.8,80.7z M208.8,66.5v-1.8h1.5v1.8H208.8z"/>
		<path class="st1" d="M212.6,77.2v-9.1h1.4v1.3c0.7-1,1.6-1.5,2.9-1.5c0.5,0,1,0.1,1.5,0.3c0.5,0.2,0.8,0.5,1,0.8
			c0.2,0.3,0.4,0.7,0.5,1.1c0.1,0.3,0.1,0.8,0.1,1.5v5.6h-1.5v-5.5c0-0.6-0.1-1.1-0.2-1.4c-0.1-0.3-0.3-0.6-0.6-0.7
			c-0.3-0.2-0.7-0.3-1.1-0.3c-0.7,0-1.2,0.2-1.7,0.6c-0.5,0.4-0.7,1.2-0.7,2.4v4.9H212.6z"/>
		<path class="st1" d="M221.8,72.7c0-1.7,0.5-2.9,1.4-3.7c0.8-0.7,1.7-1,2.8-1c1.2,0,2.3,0.4,3.1,1.2c0.8,0.8,1.2,1.9,1.2,3.4
			c0,1.2-0.2,2.1-0.5,2.8c-0.3,0.7-0.9,1.2-1.5,1.6c-0.7,0.4-1.4,0.6-2.2,0.6c-1.3,0-2.3-0.4-3.1-1.2
			C222.2,75.4,221.8,74.2,221.8,72.7z M223.4,72.7c0,1.2,0.3,2,0.8,2.6c0.5,0.6,1.1,0.9,1.9,0.9c0.8,0,1.4-0.3,1.9-0.9
			c0.5-0.6,0.8-1.5,0.8-2.7c0-1.1-0.3-2-0.8-2.5c-0.5-0.6-1.1-0.9-1.9-0.9c-0.8,0-1.4,0.3-1.9,0.9C223.6,70.6,223.4,71.5,223.4,72.7
			z"/>
		<path class="st1" d="M240,77.2v-11h-4.1v-1.5h9.9v1.5h-4.1v11H240z"/>
		<path class="st1" d="M252.6,77.2v-1.3c-0.7,1-1.7,1.5-2.9,1.5c-0.5,0-1-0.1-1.5-0.3c-0.5-0.2-0.8-0.5-1-0.8s-0.4-0.7-0.5-1.1
			c-0.1-0.3-0.1-0.8-0.1-1.4v-5.6h1.5v5c0,0.8,0,1.3,0.1,1.6c0.1,0.4,0.3,0.7,0.6,1c0.3,0.2,0.7,0.3,1.2,0.3s0.9-0.1,1.3-0.4
			c0.4-0.2,0.7-0.6,0.9-1s0.3-1,0.3-1.8v-4.9h1.5v9.1H252.6z"/>
		<path class="st1" d="M256.3,77.2v-9.1h1.4v1.4c0.4-0.6,0.7-1.1,1-1.3c0.3-0.2,0.6-0.3,1-0.3c0.5,0,1,0.2,1.6,0.5l-0.5,1.4
			c-0.4-0.2-0.8-0.3-1.1-0.3c-0.3,0-0.6,0.1-0.9,0.3c-0.3,0.2-0.5,0.5-0.6,0.8c-0.2,0.5-0.3,1.1-0.3,1.8v4.7H256.3z"/>
		<path class="st1" d="M262.1,80.7l-0.2-1.4c0.3,0.1,0.6,0.1,0.9,0.1c0.3,0,0.6-0.1,0.8-0.2c0.2-0.1,0.4-0.3,0.5-0.5
			c0.1-0.2,0.3-0.5,0.5-1.1c0-0.1,0.1-0.2,0.1-0.4l-3.4-9.1h1.7l1.9,5.2c0.2,0.7,0.5,1.4,0.7,2.1c0.2-0.7,0.4-1.4,0.6-2.1l1.9-5.3
			h1.5l-3.4,9.2c-0.4,1-0.7,1.7-0.9,2.1c-0.3,0.5-0.6,0.9-0.9,1.1c-0.4,0.2-0.8,0.4-1.3,0.4C262.8,80.9,262.5,80.8,262.1,80.7z"/>
		<path class="st1" d="M270.3,74.5l1.5-0.2c0.1,0.6,0.3,1.1,0.7,1.4c0.4,0.3,0.9,0.5,1.6,0.5c0.7,0,1.2-0.1,1.6-0.4
			c0.3-0.3,0.5-0.6,0.5-1c0-0.3-0.2-0.6-0.5-0.8c-0.2-0.1-0.7-0.3-1.6-0.5c-1.1-0.3-1.9-0.5-2.3-0.7c-0.4-0.2-0.8-0.5-1-0.9
			c-0.2-0.4-0.3-0.8-0.3-1.2c0-0.4,0.1-0.8,0.3-1.1c0.2-0.3,0.4-0.6,0.8-0.9c0.2-0.2,0.6-0.3,1-0.4c0.4-0.1,0.9-0.2,1.3-0.2
			c0.7,0,1.3,0.1,1.9,0.3c0.5,0.2,0.9,0.5,1.2,0.8c0.3,0.3,0.4,0.8,0.5,1.4l-1.5,0.2c-0.1-0.5-0.3-0.8-0.6-1.1s-0.8-0.4-1.4-0.4
			c-0.7,0-1.2,0.1-1.5,0.3c-0.3,0.2-0.5,0.5-0.5,0.8c0,0.2,0.1,0.4,0.2,0.5c0.1,0.2,0.3,0.3,0.6,0.4c0.2,0.1,0.6,0.2,1.4,0.4
			c1.1,0.3,1.8,0.5,2.3,0.7c0.4,0.2,0.8,0.5,1,0.8c0.2,0.4,0.4,0.8,0.4,1.3c0,0.5-0.1,1-0.4,1.4s-0.7,0.8-1.3,1
			c-0.6,0.2-1.2,0.4-1.9,0.4c-1.2,0-2.1-0.2-2.7-0.7S270.5,75.5,270.3,74.5z"/>
		<path class="st1" d="M283,75.8l0.2,1.4c-0.4,0.1-0.8,0.1-1.2,0.1c-0.6,0-1-0.1-1.3-0.3c-0.3-0.2-0.5-0.4-0.6-0.7s-0.2-0.9-0.2-1.8
			v-5.2h-1.1v-1.2h1.1v-2.2l1.5-0.9v3.2h1.5v1.2h-1.5v5.3c0,0.4,0,0.7,0.1,0.8c0.1,0.1,0.1,0.2,0.3,0.3c0.1,0.1,0.3,0.1,0.5,0.1
			C282.5,75.9,282.7,75.9,283,75.8z"/>
		<path class="st1" d="M284.4,80.7l-0.2-1.4c0.3,0.1,0.6,0.1,0.9,0.1c0.3,0,0.6-0.1,0.8-0.2c0.2-0.1,0.4-0.3,0.5-0.5
			c0.1-0.2,0.3-0.5,0.5-1.1c0-0.1,0.1-0.2,0.1-0.4l-3.4-9.1h1.7l1.9,5.2c0.2,0.7,0.5,1.4,0.7,2.1c0.2-0.7,0.4-1.4,0.6-2.1l1.9-5.3
			h1.5l-3.4,9.2c-0.4,1-0.7,1.7-0.9,2.1c-0.3,0.5-0.6,0.9-0.9,1.1c-0.4,0.2-0.8,0.4-1.3,0.4C285.1,80.9,284.8,80.8,284.4,80.7z"/>
		<path class="st1" d="M299.2,73.9l1.5,0.2c-0.2,1-0.6,1.9-1.3,2.4s-1.5,0.9-2.5,0.9c-1.2,0-2.2-0.4-3-1.2c-0.8-0.8-1.1-2-1.1-3.5
			c0-1,0.2-1.8,0.5-2.6s0.8-1.3,1.5-1.7c0.7-0.4,1.4-0.6,2.2-0.6c1,0,1.8,0.2,2.4,0.7c0.6,0.5,1,1.2,1.2,2.1L299,71
			c-0.1-0.6-0.4-1.1-0.8-1.4s-0.8-0.5-1.3-0.5c-0.8,0-1.4,0.3-1.9,0.8c-0.5,0.6-0.7,1.4-0.7,2.6c0,1.2,0.2,2.1,0.7,2.7
			c0.5,0.6,1.1,0.8,1.8,0.8c0.6,0,1.1-0.2,1.5-0.6C298.8,75.2,299,74.7,299.2,73.9z"/>
		<path class="st1" d="M301.2,77.2V76l5.8-6.6c-0.7,0-1.2,0.1-1.7,0.1h-3.7v-1.2h7.4v1l-4.9,5.8l-0.9,1c0.7-0.1,1.3-0.1,1.9-0.1h4.2
			v1.3H301.2z"/>
		<path class="st1" d="M310.7,77.2v-9.1h1.4v1.3c0.7-1,1.6-1.5,2.9-1.5c0.5,0,1,0.1,1.5,0.3s0.8,0.5,1,0.8c0.2,0.3,0.4,0.7,0.5,1.1
			c0.1,0.3,0.1,0.8,0.1,1.5v5.6h-1.5v-5.5c0-0.6-0.1-1.1-0.2-1.4c-0.1-0.3-0.3-0.6-0.6-0.7c-0.3-0.2-0.7-0.3-1.1-0.3
			c-0.7,0-1.2,0.2-1.7,0.6c-0.5,0.4-0.7,1.2-0.7,2.4v4.9H310.7z"/>
		<path class="st1" d="M326.6,74.3l1.6,0.2c-0.2,0.9-0.7,1.6-1.4,2.2s-1.5,0.8-2.6,0.8c-1.3,0-2.4-0.4-3.2-1.2
			c-0.8-0.8-1.2-2-1.2-3.4c0-1.5,0.4-2.7,1.2-3.5s1.8-1.3,3.1-1.3c1.2,0,2.2,0.4,3,1.2c0.8,0.8,1.2,2,1.2,3.5c0,0.1,0,0.2,0,0.4
			h-6.8c0.1,1,0.3,1.8,0.8,2.3c0.5,0.5,1.1,0.8,1.9,0.8c0.6,0,1-0.1,1.4-0.4C326.1,75.4,326.4,74.9,326.6,74.3z M321.6,71.8h5.1
			c-0.1-0.8-0.3-1.3-0.6-1.7c-0.5-0.6-1.1-0.9-1.9-0.9c-0.7,0-1.3,0.2-1.8,0.7C321.9,70.4,321.6,71,321.6,71.8z"/>
	</g>
	<rect x="19.5" y="0.5" class="st2" width="59" height="59"/>
</g>
</svg>
